<svg xmlns="http://www.w3.org/2000/svg" width="170.932" height="51.36" viewBox="0 0 170.932 51.36"><defs><style>.a,.c,.d{fill:#fff;}.a{font-size:12.038px;}.a,.c{font-family:Helvetica;}.b{letter-spacing:0.08em;}.c{font-size:23.273px;}</style></defs><rect width="170.933" height="51.36" rx="8.025"/><text class="a" transform="translate(54.57 15.42)"><tspan class="b" x="0" y="0">Download on th</tspan><tspan y="0">e</tspan></text><text class="c" transform="translate(54.57 36.458)"><tspan x="0" y="0">App Store</tspan></text><path class="d" d="M8.763,33.631c-2.078,0-3.651-2.014-5.212-4.257A21.142,21.142,0,0,1,.278,21.266c-.425-2.4-.573-5.884,1.136-8.838a8.582,8.582,0,0,1,2.969-3.05A7.978,7.978,0,0,1,8.393,8.213H8.48a9.431,9.431,0,0,1,3.394.866,6.433,6.433,0,0,0,2.091.6,6.559,6.559,0,0,0,2.022-.59,10.947,10.947,0,0,1,3.9-.977c.181,0,.362.009.536.026a8.493,8.493,0,0,1,2.755.6A7.444,7.444,0,0,1,26.6,11.465l-.027.017a7.54,7.54,0,0,0-3.616,6.388,7.4,7.4,0,0,0,4.521,6.8l.007,0-.01.033a18.411,18.411,0,0,1-2.327,4.752c-1.316,1.916-2.808,4.087-5.164,4.131h-.1a5.83,5.83,0,0,1-2.512-.63,6.76,6.76,0,0,0-2.958-.706,7.189,7.189,0,0,0-3.105.729,6.428,6.428,0,0,1-2.426.648ZM14.042,7.764c-.115,0-.23,0-.343-.013a7,7,0,0,1,1.792-5.2A7.555,7.555,0,0,1,20.462,0,7.411,7.411,0,0,1,18.7,5.371,6.348,6.348,0,0,1,14.042,7.764Z" transform="translate(13.501 8.827)"/></svg>